<svg width="24" height="24" viewBox="0 0 24 24" fill="none" xmlns="http://www.w3.org/2000/svg">
<mask id="mask0_785_71" style="mask-type:alpha" maskUnits="userSpaceOnUse" x="0" y="0" width="24" height="24">
<rect width="24" height="24" fill="#D9D9D9"/>
</mask>
<g mask="url(#mask0_785_71)">
<path d="M12 10.7999L8.10005 14.6999C7.91672 14.8832 7.68338 14.9749 7.40005 14.9749C7.11672 14.9749 6.88338 14.8832 6.70005 14.6999C6.51672 14.5166 6.42505 14.2832 6.42505 13.9999C6.42505 13.7166 6.51672 13.4832 6.70005 13.2999L11.3 8.6999C11.5 8.4999 11.7334 8.3999 12 8.3999C12.2667 8.3999 12.5 8.4999 12.7 8.6999L17.3 13.2999C17.4834 13.4832 17.575 13.7166 17.575 13.9999C17.575 14.2832 17.4834 14.5166 17.3 14.6999C17.1167 14.8832 16.8834 14.9749 16.6 14.9749C16.3167 14.9749 16.0834 14.8832 15.9 14.6999L12 10.7999Z" fill="#1C1B1F"/>
</g>
</svg>
