<svg xmlns="http://www.w3.org/2000/svg" width="14.143" height="11" viewBox="0 0 14.143 11">
  <path id="mail_24dp_E8EAED_FILL0_wght200_GRAD0_opsz24" d="M121.269-749a1.229,1.229,0,0,1-.906-.363,1.229,1.229,0,0,1-.363-.906v-8.461a1.23,1.23,0,0,1,.363-.906,1.23,1.23,0,0,1,.906-.363h11.6a1.23,1.23,0,0,1,.906.363,1.229,1.229,0,0,1,.363.906v8.461a1.229,1.229,0,0,1-.363.906,1.229,1.229,0,0,1-.906.363Zm12.088-9.519-5.934,3.885a1.209,1.209,0,0,1-.168.073.559.559,0,0,1-.184.029.559.559,0,0,1-.184-.029,1.209,1.209,0,0,1-.168-.073l-5.934-3.885v8.25a.471.471,0,0,0,.136.348.471.471,0,0,0,.348.136h11.6a.471.471,0,0,0,.348-.136.471.471,0,0,0,.136-.348Zm-6.286,3.234,6.044-3.929H121.028Zm-6.286-3.234v0Z" transform="translate(-120 760)" fill="#3d3d3d"/>
</svg>
