<svg width="17" height="17" viewBox="0 0 17 17" fill="none" xmlns="http://www.w3.org/2000/svg">
<mask id="mask0_759_152" style="mask-type:alpha" maskUnits="userSpaceOnUse" x="0" y="0" width="17" height="17">
<rect width="16.36" height="16.36" fill="#D9D9D9"/>
</mask>
<g mask="url(#mask0_759_152)">
<path d="M8.18002 10.9066C9.0321 10.9066 9.75637 10.6083 10.3528 10.0119C10.9493 9.41542 11.2475 8.69115 11.2475 7.83906C11.2475 6.98698 10.9493 6.26271 10.3528 5.66625C9.75637 5.06979 9.0321 4.77156 8.18002 4.77156C7.32793 4.77156 6.60366 5.06979 6.0072 5.66625C5.41074 6.26271 5.11252 6.98698 5.11252 7.83906C5.11252 8.69115 5.41074 9.41542 6.0072 10.0119C6.60366 10.6083 7.32793 10.9066 8.18002 10.9066ZM8.18002 9.67956C7.66877 9.67956 7.2342 9.50063 6.87633 9.14275C6.51845 8.78488 6.33952 8.35031 6.33952 7.83906C6.33952 7.32781 6.51845 6.89325 6.87633 6.53538C7.2342 6.1775 7.66877 5.99856 8.18002 5.99856C8.69127 5.99856 9.12583 6.1775 9.4837 6.53538C9.84158 6.89325 10.0205 7.32781 10.0205 7.83906C10.0205 8.35031 9.84158 8.78488 9.4837 9.14275C9.12583 9.50063 8.69127 9.67956 8.18002 9.67956ZM8.18002 12.9516C6.65763 12.9516 5.26873 12.5426 4.01333 11.7246C2.75793 10.9066 1.76667 9.82726 1.03956 8.48665C0.982752 8.3844 0.940148 8.27931 0.911745 8.17138C0.883342 8.06344 0.869141 7.95267 0.869141 7.83906C0.869141 7.72545 0.883342 7.61468 0.911745 7.50675C0.940148 7.39882 0.982752 7.29373 1.03956 7.19148C1.76667 5.85087 2.75793 4.77156 4.01333 3.95356C5.26873 3.13556 6.65763 2.72656 8.18002 2.72656C9.7024 2.72656 11.0913 3.13556 12.3467 3.95356C13.6021 4.77156 14.5934 5.85087 15.3205 7.19148C15.3773 7.29373 15.4199 7.39882 15.4483 7.50675C15.4767 7.61468 15.4909 7.72545 15.4909 7.83906C15.4909 7.95267 15.4767 8.06344 15.4483 8.17138C15.4199 8.27931 15.3773 8.3844 15.3205 8.48665C14.5934 9.82726 13.6021 10.9066 12.3467 11.7246C11.0913 12.5426 9.7024 12.9516 8.18002 12.9516ZM8.18002 11.5882C9.46382 11.5882 10.6425 11.2502 11.7162 10.5742C12.7898 9.89826 13.6106 8.98653 14.1787 7.83906C13.6106 6.69159 12.7898 5.77986 11.7162 5.10387C10.6425 4.42789 9.46382 4.0899 8.18002 4.0899C6.89621 4.0899 5.71749 4.42789 4.64387 5.10387C3.57024 5.77986 2.7494 6.69159 2.18135 7.83906C2.7494 8.98653 3.57024 9.89826 4.64387 10.5742C5.71749 11.2502 6.89621 11.5882 8.18002 11.5882Z" fill="#1C1B1F"/>
</g>
</svg>
