<svg xmlns="http://www.w3.org/2000/svg" width="16.36" height="11" viewBox="0 0 16.36 11">
  <path id="visibility_24dp_E8EAED_FILL0_wght200_GRAD0_opsz24" d="M101.494-751.408a2.972,2.972,0,0,0,2.189-.9,2.991,2.991,0,0,0,.9-2.193,2.973,2.973,0,0,0-.9-2.189,2.992,2.992,0,0,0-2.193-.9,2.973,2.973,0,0,0-2.189.9,2.991,2.991,0,0,0-.9,2.193,2.973,2.973,0,0,0,.9,2.189A2.991,2.991,0,0,0,101.494-751.408Zm0-.807a2.2,2.2,0,0,1-1.618-.666,2.2,2.2,0,0,1-.666-1.618,2.2,2.2,0,0,1,.666-1.618,2.2,2.2,0,0,1,1.618-.666,2.2,2.2,0,0,1,1.618.666,2.2,2.2,0,0,1,.666,1.618,2.2,2.2,0,0,1-.666,1.618A2.2,2.2,0,0,1,101.49-752.215Zm0,3.215a8.422,8.422,0,0,1-4.6-1.328,10.363,10.363,0,0,1-3.382-3.482,1.312,1.312,0,0,1-.151-.344,1.355,1.355,0,0,1-.045-.347,1.347,1.347,0,0,1,.045-.347,1.317,1.317,0,0,1,.151-.343,10.363,10.363,0,0,1,3.382-3.482,8.422,8.422,0,0,1,4.6-1.328,8.422,8.422,0,0,1,4.6,1.328,10.363,10.363,0,0,1,3.382,3.482,1.312,1.312,0,0,1,.151.344,1.356,1.356,0,0,1,.045.347,1.346,1.346,0,0,1-.045.346,1.317,1.317,0,0,1-.151.343,10.363,10.363,0,0,1-3.382,3.482A8.422,8.422,0,0,1,101.49-749ZM101.49-754.5Zm0,4.654a8.076,8.076,0,0,0,4.389-1.259,8.269,8.269,0,0,0,3.057-3.4,8.269,8.269,0,0,0-3.057-3.4,8.076,8.076,0,0,0-4.389-1.259A8.076,8.076,0,0,0,97.1-757.9a8.269,8.269,0,0,0-3.057,3.4,8.269,8.269,0,0,0,3.057,3.4A8.076,8.076,0,0,0,101.49-749.846Z" transform="translate(-93.31 760)" fill="#9b9c9d"/>
</svg>
