<svg width="17" height="17" viewBox="0 0 17 17" fill="none" xmlns="http://www.w3.org/2000/svg">
<mask id="mask0_759_158" style="mask-type:alpha" maskUnits="userSpaceOnUse" x="0" y="0" width="17" height="17">
<rect width="16.36" height="16.36" fill="#D9D9D9"/>
</mask>
<g mask="url(#mask0_759_158)">
<path d="M10.3443 5.67499C10.6737 6.00446 10.9152 6.37938 11.0685 6.79974C11.2219 7.2201 11.2759 7.65182 11.2304 8.0949C11.2304 8.26532 11.1679 8.41017 11.043 8.52947C10.918 8.64876 10.7703 8.7084 10.5999 8.7084C10.4295 8.7084 10.2846 8.64876 10.1653 8.52947C10.046 8.41017 9.98639 8.26532 9.98639 8.0949C10.0432 7.79951 10.0261 7.51549 9.93526 7.24282C9.84437 6.97015 9.70236 6.73725 9.50922 6.54411C9.31608 6.35097 9.08318 6.20328 8.81051 6.10103C8.53784 5.99878 8.24813 5.97606 7.94138 6.03286C7.77097 6.03286 7.62611 5.97038 7.50682 5.8454C7.38753 5.72043 7.32788 5.57274 7.32788 5.40232C7.32788 5.2319 7.38753 5.08705 7.50682 4.96776C7.62611 4.84847 7.77097 4.78882 7.94138 4.78882C8.37311 4.74338 8.79915 4.79734 9.21951 4.95072C9.63987 5.10409 10.0148 5.34551 10.3443 5.67499ZM8.17997 4.09011C7.96411 4.09011 7.75393 4.09863 7.54943 4.11567C7.34493 4.13272 7.14043 4.16396 6.93593 4.2094C6.74279 4.24349 6.56953 4.21508 6.41616 4.12419C6.26278 4.03331 6.15769 3.89697 6.10088 3.71519C6.04408 3.53342 6.06396 3.35732 6.16053 3.1869C6.2571 3.01649 6.39627 2.91424 6.57805 2.88015C6.83936 2.82335 7.1035 2.78358 7.37049 2.76086C7.63748 2.73814 7.9073 2.72678 8.17997 2.72678C9.73644 2.72678 11.1594 3.13578 12.4489 3.95378C13.7384 4.77178 14.724 5.87381 15.4056 7.25986C15.4511 7.35075 15.4852 7.44448 15.5079 7.54105C15.5306 7.63762 15.542 7.73703 15.542 7.83928C15.542 7.94153 15.5334 8.04094 15.5164 8.13751C15.4994 8.23408 15.4681 8.32781 15.4227 8.41869C15.2182 8.87314 14.9654 9.29918 14.6643 9.69682C14.3633 10.0945 14.0309 10.458 13.6674 10.7875C13.5311 10.9125 13.372 10.9636 13.1902 10.9409C13.0084 10.9181 12.8607 10.8273 12.7471 10.6682C12.6335 10.5091 12.5852 10.3359 12.6023 10.1484C12.6193 9.96097 12.696 9.80475 12.8323 9.67978C13.105 9.41847 13.355 9.13444 13.5822 8.82769C13.8094 8.52094 14.0082 8.19147 14.1786 7.83928C13.6106 6.69181 12.7897 5.78008 11.7161 5.10409C10.6425 4.4281 9.46377 4.09011 8.17997 4.09011ZM8.17997 12.9518C6.65758 12.9518 5.26584 12.5399 4.00476 11.7163C2.74368 10.8926 1.74958 9.81043 1.02247 8.46982C0.965662 8.37893 0.923058 8.27952 0.894655 8.17159C0.866252 8.06366 0.852051 7.95289 0.852051 7.83928C0.852051 7.72567 0.863412 7.61774 0.886134 7.51549C0.908856 7.41324 0.94862 7.31099 1.00543 7.20874C1.23265 6.75429 1.49679 6.31973 1.79786 5.90505C2.09893 5.49037 2.44261 5.11261 2.82888 4.77178L1.41443 3.34028C1.28945 3.20394 1.22981 3.04205 1.23549 2.85459C1.24117 2.66713 1.3065 2.51092 1.43147 2.38594C1.55644 2.26097 1.7155 2.19849 1.90863 2.19849C2.10177 2.19849 2.26083 2.26097 2.3858 2.38594L13.9741 13.9743C14.0991 14.0993 14.1644 14.2555 14.1701 14.4429C14.1758 14.6304 14.1105 14.7923 13.9741 14.9286C13.8492 15.0536 13.6901 15.1161 13.497 15.1161C13.3038 15.1161 13.1448 15.0536 13.0198 14.9286L10.634 12.5769C10.2363 12.7018 9.83301 12.7956 9.42401 12.858C9.01501 12.9205 8.60033 12.9518 8.17997 12.9518ZM3.78322 5.72611C3.45375 6.0215 3.15268 6.34529 2.88001 6.69749C2.60734 7.04968 2.37444 7.43028 2.1813 7.83928C2.74936 8.98675 3.5702 9.89848 4.64382 10.5745C5.71745 11.2505 6.89616 11.5884 8.17997 11.5884C8.40719 11.5884 8.62873 11.5742 8.84459 11.5458C9.06045 11.5174 9.282 11.4862 9.50922 11.4521L8.89572 10.8045C8.77075 10.8386 8.65145 10.8642 8.53784 10.8812C8.42423 10.8983 8.30494 10.9068 8.17997 10.9068C7.32788 10.9068 6.60361 10.6085 6.00716 10.0121C5.4107 9.41563 5.11247 8.69136 5.11247 7.83928C5.11247 7.71431 5.12099 7.59501 5.13803 7.4814C5.15507 7.36779 5.18063 7.2485 5.21472 7.12353L3.78322 5.72611Z" fill="#1C1B1F"/>
</g>
</svg>
