<svg xmlns="http://www.w3.org/2000/svg" width="12.865" height="14.258" viewBox="0 0 12.865 14.258">
  <path id="sports_tennis_24dp_E8EAED_FILL0_wght200_GRAD0_opsz24" d="M128.639-874.725a10.084,10.084,0,0,0-2.18.175,2.634,2.634,0,0,0-1.272.716l-2.948,2.948a.355.355,0,0,1-.243.107.345.345,0,0,1-.26-.1.364.364,0,0,1-.117-.256.354.354,0,0,1,.117-.253l2.943-2.943a2.557,2.557,0,0,0,.693-1.245,10.481,10.481,0,0,0,.17-2.211,4.4,4.4,0,0,1,.421-1.859,5.824,5.824,0,0,1,1.191-1.684,5.234,5.234,0,0,1,3.051-1.61,3.069,3.069,0,0,1,2.721.865,3.1,3.1,0,0,1,.86,2.729,5.223,5.223,0,0,1-1.606,3.043,5.638,5.638,0,0,1-1.676,1.177A4.509,4.509,0,0,1,128.639-874.725Zm-1.754-1.349a2.462,2.462,0,0,0,2.255.6,4.556,4.556,0,0,0,2.539-1.345,4.525,4.525,0,0,0,1.352-2.548,2.4,2.4,0,0,0-.606-2.211,2.441,2.441,0,0,0-2.222-.605,4.642,4.642,0,0,0-2.537,1.35,4.632,4.632,0,0,0-1.365,2.516A2.4,2.4,0,0,0,126.885-876.074Zm5.469,7.351a2.052,2.052,0,0,1-1.5-.626,2.052,2.052,0,0,1-.626-1.5,2.052,2.052,0,0,1,.626-1.5,2.052,2.052,0,0,1,1.5-.626,2.052,2.052,0,0,1,1.5.626,2.052,2.052,0,0,1,.626,1.5,2.052,2.052,0,0,1-.626,1.5A2.052,2.052,0,0,1,132.354-868.723Zm0-.71a1.368,1.368,0,0,0,1-.417,1.368,1.368,0,0,0,.417-1,1.368,1.368,0,0,0-.417-1,1.368,1.368,0,0,0-1-.417,1.368,1.368,0,0,0-1,.417,1.368,1.368,0,0,0-.417,1,1.368,1.368,0,0,0,.417,1A1.368,1.368,0,0,0,132.354-869.433ZM132.354-870.854Z" transform="translate(-121.62 882.981)" fill="#3d3d3d"/>
</svg>
