<svg xmlns="http://www.w3.org/2000/svg" width="13.956" height="13.189" viewBox="0 0 13.956 13.189">
  <path id="person_24dp_E8EAED_FILL0_wght200_GRAD0_opsz24" d="M206.978-738.639a2.88,2.88,0,0,1-2.112-.878,2.88,2.88,0,0,1-.878-2.112,2.88,2.88,0,0,1,.878-2.112,2.88,2.88,0,0,1,2.112-.879,2.88,2.88,0,0,1,2.112.879,2.88,2.88,0,0,1,.878,2.112,2.88,2.88,0,0,1-.878,2.112A2.88,2.88,0,0,1,206.978-738.639ZM200-732.466v-.606a2.041,2.041,0,0,1,.359-1.155,2.416,2.416,0,0,1,.967-.835,14.155,14.155,0,0,1,2.824-1.015,12.108,12.108,0,0,1,2.828-.338,12.108,12.108,0,0,1,2.828.338,14.155,14.155,0,0,1,2.824,1.015,2.416,2.416,0,0,1,.967.835,2.041,2.041,0,0,1,.359,1.155v.606a1,1,0,0,1-.3.737,1,1,0,0,1-.737.3H201.035a1,1,0,0,1-.737-.3A1,1,0,0,1,200-732.466Zm1,.038h11.962v-.644a1.034,1.034,0,0,0-.214-.623,1.719,1.719,0,0,0-.591-.493,12.656,12.656,0,0,0-2.538-.913,11.148,11.148,0,0,0-2.638-.317,11.148,11.148,0,0,0-2.638.317,12.656,12.656,0,0,0-2.538.913,1.719,1.719,0,0,0-.591.493,1.034,1.034,0,0,0-.214.623Zm5.981-7.208a1.92,1.92,0,0,0,1.408-.586,1.92,1.92,0,0,0,.586-1.408,1.92,1.92,0,0,0-.586-1.408,1.92,1.92,0,0,0-1.408-.586,1.92,1.92,0,0,0-1.408.586,1.92,1.92,0,0,0-.586,1.408,1.92,1.92,0,0,0,.586,1.408A1.92,1.92,0,0,0,206.978-739.636ZM206.978-741.629ZM206.978-732.427Z" transform="translate(-200 744.62)" fill="#3d3d3d"/>
</svg>
