<svg xmlns="http://www.w3.org/2000/svg" width="11.722" height="15.072" viewBox="0 0 11.722 15.072">
  <path id="lock_24dp_E8EAED_FILL0_wght200_GRAD0_opsz24" d="M201.353-824.928a1.3,1.3,0,0,1-.957-.4,1.3,1.3,0,0,1-.4-.957v-7.342a1.3,1.3,0,0,1,.4-.958,1.3,1.3,0,0,1,.957-.4h1.159v-1.675a3.231,3.231,0,0,1,.975-2.374,3.231,3.231,0,0,1,2.374-.975,3.231,3.231,0,0,1,2.374.975,3.231,3.231,0,0,1,.975,2.374v1.675h1.159a1.3,1.3,0,0,1,.957.4,1.3,1.3,0,0,1,.4.958v7.342a1.3,1.3,0,0,1-.4.957,1.3,1.3,0,0,1-.957.4Zm0-.837h9.017a.5.5,0,0,0,.371-.145.5.5,0,0,0,.145-.37v-7.342a.5.5,0,0,0-.145-.371.5.5,0,0,0-.371-.145h-9.017a.5.5,0,0,0-.371.145.5.5,0,0,0-.145.371v7.342a.5.5,0,0,0,.145.37A.5.5,0,0,0,201.353-825.766Zm4.509-2.931a1.213,1.213,0,0,0,.893-.363,1.213,1.213,0,0,0,.363-.893,1.213,1.213,0,0,0-.363-.893,1.213,1.213,0,0,0-.893-.363,1.213,1.213,0,0,0-.893.363,1.213,1.213,0,0,0-.363.893,1.213,1.213,0,0,0,.363.893A1.213,1.213,0,0,0,205.861-828.7Zm-2.512-6.28h5.024v-1.675a2.422,2.422,0,0,0-.733-1.779,2.423,2.423,0,0,0-1.779-.733,2.423,2.423,0,0,0-1.779.733,2.422,2.422,0,0,0-.733,1.779Zm-2.512,9.211v0Z" transform="translate(-200 840)" fill="#3d3d3d"/>
</svg>
