<svg xmlns="http://www.w3.org/2000/svg" width="9.63" height="16.049" viewBox="0 0 9.63 16.049">
  <path id="phone_iphone_24dp_E8EAED_FILL0_wght200_GRAD0_opsz24" d="M241.3-863.951a1.256,1.256,0,0,1-.925-.371,1.256,1.256,0,0,1-.371-.925V-878.7a1.256,1.256,0,0,1,.371-.925A1.256,1.256,0,0,1,241.3-880h7.037a1.256,1.256,0,0,1,.925.371,1.256,1.256,0,0,1,.371.925v13.457a1.255,1.255,0,0,1-.371.925,1.256,1.256,0,0,1-.925.371Zm-.494-3.58v2.284a.472.472,0,0,0,.154.34.472.472,0,0,0,.34.154h7.037a.472.472,0,0,0,.34-.154.472.472,0,0,0,.154-.34v-2.284Zm4.012,2.006a.593.593,0,0,0,.433-.184.593.593,0,0,0,.184-.433.593.593,0,0,0-.184-.433.593.593,0,0,0-.433-.184.593.593,0,0,0-.433.184.593.593,0,0,0-.184.433.593.593,0,0,0,.184.433A.593.593,0,0,0,244.815-865.525Zm-4.012-2.809h8.025v-8.858H240.8Zm0-9.661h8.025v-.71a.472.472,0,0,0-.154-.34.472.472,0,0,0-.34-.154H241.3a.472.472,0,0,0-.34.154.472.472,0,0,0-.154.34Zm0,10.463v0Zm0-10.463v0Z" transform="translate(-240 880)" fill="#3d3d3d"/>
</svg>
