<svg width="24" height="24" viewBox="0 0 24 24" fill="none" xmlns="http://www.w3.org/2000/svg">
<mask id="mask0_839_89" style="mask-type:alpha" maskUnits="userSpaceOnUse" x="0" y="0" width="24" height="24">
<rect width="24" height="24" fill="#D9D9D9"/>
</mask>
<g mask="url(#mask0_839_89)">
<path d="M13 14.55C11.3834 14.55 10.2 14.6416 9.45005 14.825C8.70005 15.0083 8.05838 15.3666 7.52505 15.9L4.12505 19.3C3.94172 19.4833 3.71255 19.575 3.43755 19.575C3.16255 19.575 2.92505 19.4833 2.72505 19.3C2.52505 19.1 2.42505 18.8625 2.42505 18.5875C2.42505 18.3125 2.52505 18.075 2.72505 17.875L6.10005 14.5C6.61672 13.9833 6.97088 13.3375 7.16255 12.5625C7.35422 11.7875 7.45005 10.6 7.45005 8.99997C7.45005 8.0333 7.66672 7.0833 8.10005 6.14997C8.53338 5.21664 9.15005 4.34997 9.95005 3.54997C11.4667 2.0333 13.1417 1.17497 14.975 0.97497C16.8084 0.77497 18.3167 1.2833 19.5 2.49997C20.7 3.69997 21.2 5.21664 21 7.04997C20.8 8.8833 19.95 10.55 18.45 12.05C17.65 12.85 16.7834 13.4666 15.85 13.9C14.9167 14.3333 13.9667 14.55 13 14.55ZM10.3 11.65C11.0834 12.4166 12.1417 12.7 13.475 12.5C14.8084 12.3 16 11.675 17.05 10.625C18.1167 9.5583 18.7542 8.36247 18.9625 7.03747C19.1709 5.71247 18.8834 4.67497 18.1 3.92497C17.3 3.12497 16.2542 2.82497 14.9625 3.02497C13.6709 3.22497 12.4834 3.8583 11.4 4.92497C10.35 5.97497 9.71255 7.16247 9.48755 8.48747C9.26255 9.81247 9.53338 10.8666 10.3 11.65ZM18 23C16.9 23 15.9584 22.6083 15.175 21.825C14.3917 21.0416 14 20.1 14 19C14 17.9 14.3917 16.9583 15.175 16.175C15.9584 15.3916 16.9 15 18 15C19.1 15 20.0417 15.3916 20.825 16.175C21.6084 16.9583 22 17.9 22 19C22 20.1 21.6084 21.0416 20.825 21.825C20.0417 22.6083 19.1 23 18 23ZM18 21C18.55 21 19.0209 20.8041 19.4125 20.4125C19.8042 20.0208 20 19.55 20 19C20 18.45 19.8042 17.9791 19.4125 17.5875C19.0209 17.1958 18.55 17 18 17C17.45 17 16.9792 17.1958 16.5875 17.5875C16.1959 17.9791 16 18.45 16 19C16 19.55 16.1959 20.0208 16.5875 20.4125C16.9792 20.8041 17.45 21 18 21Z" fill="#1C1B1F"/>
</g>
</svg>
