<svg width="24" height="24" viewBox="0 0 24 24" fill="none" xmlns="http://www.w3.org/2000/svg">
<mask id="mask0_741_80" style="mask-type:alpha" maskUnits="userSpaceOnUse" x="0" y="0" width="24" height="24">
<rect width="24" height="24" transform="matrix(-1 0 0 1 24 0)" fill="#FFFFFF"/>
</mask>
<g mask="url(#mask0_741_80)">
<path d="M15 16.5C15.7 16.5 16.2917 16.2583 16.775 15.775C17.2583 15.2917 17.5 14.7 17.5 14C17.5 13.3 17.2583 12.7083 16.775 12.225C16.2917 11.7417 15.7 11.5 15 11.5C14.3 11.5 13.7083 11.7417 13.225 12.225C12.7417 12.7083 12.5 13.3 12.5 14C12.5 14.7 12.7417 15.2917 13.225 15.775C13.7083 16.2583 14.3 16.5 15 16.5ZM19 22C19.55 22 20.0208 21.8042 20.4125 21.4125C20.8042 21.0208 21 20.55 21 20V6C21 5.45 20.8042 4.97917 20.4125 4.5875C20.0208 4.19583 19.55 4 19 4H18V2H16V4H8V2H6V4H5C4.45 4 3.97917 4.19583 3.5875 4.5875C3.19583 4.97917 3 5.45 3 6V20C3 20.55 3.19583 21.0208 3.5875 21.4125C3.97917 21.8042 4.45 22 5 22H19ZM19 20H5V10H19V20ZM19 8H5V6H19V8Z" fill="#FFFFFF"/>
</g>
</svg>
