<svg width="24" height="24" viewBox="0 0 24 24" fill="none" xmlns="http://www.w3.org/2000/svg">
<mask id="mask0_785_77" style="mask-type:alpha" maskUnits="userSpaceOnUse" x="0" y="0" width="24" height="24">
<rect width="24" height="24" fill="#D9D9D9"/>
</mask>
<g mask="url(#mask0_785_77)">
<path d="M12 13.4L9.10005 16.3C8.91672 16.4833 8.68338 16.575 8.40005 16.575C8.11672 16.575 7.88338 16.4833 7.70005 16.3C7.51672 16.1166 7.42505 15.8833 7.42505 15.6C7.42505 15.3166 7.51672 15.0833 7.70005 14.9L10.6 12L7.70005 9.12495C7.51672 8.94162 7.42505 8.70828 7.42505 8.42495C7.42505 8.14162 7.51672 7.90828 7.70005 7.72495C7.88338 7.54162 8.11672 7.44995 8.40005 7.44995C8.68338 7.44995 8.91672 7.54162 9.10005 7.72495L12 10.625L14.875 7.72495C15.0584 7.54162 15.2917 7.44995 15.575 7.44995C15.8584 7.44995 16.0917 7.54162 16.275 7.72495C16.475 7.92495 16.575 8.16245 16.575 8.43745C16.575 8.71245 16.475 8.94162 16.275 9.12495L13.375 12L16.275 14.9C16.4584 15.0833 16.55 15.3166 16.55 15.6C16.55 15.8833 16.4584 16.1166 16.275 16.3C16.075 16.5 15.8375 16.6 15.5625 16.6C15.2875 16.6 15.0584 16.5 14.875 16.3L12 13.4Z" fill="#1C1B1F"/>
</g>
</svg>
